<svg width="512" height="512" viewBox="0 0 512 512" fill="none" xmlns="http://www.w3.org/2000/svg">
  <rect width="512" height="512" rx="64" fill="#343CED" />
  <path
    d="M348.863 110.051L309.315 79.2375L277.288 121.698C228.762 98.6479 169.075 111.507 135.107 155.423C95.5587 206.375 104.779 279.649 155.731 319.198C175.141 334.241 197.706 342.248 220.513 343.461C257.635 345.644 295.242 330.116 319.505 298.574C353.716 254.658 351.29 193.516 317.079 152.269L348.863 110.051ZM279.714 267.76C257.15 296.633 215.417 301.971 186.302 279.407C157.429 256.842 152.091 214.867 174.656 185.994C185.574 171.922 201.345 162.945 218.814 160.761C222.939 160.276 227.064 160.033 231.188 160.276C244.533 161.004 257.392 165.856 268.068 174.106C296.941 196.913 302.279 238.888 279.714 267.76Z"
    fill="white" />
  <path
    d="M351.291 319.683C344.74 328.175 337.461 335.696 329.455 342.733C321.691 349.284 313.199 355.349 304.221 360.445C295.487 365.297 286.024 369.422 276.562 372.576C267.099 375.73 257.151 377.914 247.203 379.127C237.256 380.34 227.308 380.825 217.117 380.097C206.927 379.37 196.979 377.671 187.274 375.245L185.09 383.252L175.143 423.771C187.759 427.168 200.619 429.109 213.721 430.079C214.206 430.079 214.934 430.079 215.419 430.079C228.036 430.807 240.895 430.322 253.269 428.866C266.371 427.168 279.473 424.256 292.09 420.131C304.707 416.007 317.081 410.669 328.727 404.118C340.616 397.567 351.777 389.56 362.21 380.825C372.885 371.848 382.59 361.658 391.082 350.497C392.296 349.041 393.266 347.343 394.479 345.644L354.203 315.801C352.99 317.014 352.262 318.47 351.291 319.683Z"
    fill="white" />
</svg>
